<?xml version="1.0" encoding="UTF-8" standalone="no"?>
<!DOCTYPE svg PUBLIC "-//W3C//DTD SVG 1.1//EN"
 "http://www.w3.org/Graphics/SVG/1.1/DTD/svg11.dtd">
<!-- Generated by graphviz version 12.0.0 (20240704.0754)
 -->
<!-- Title: dependency&#45;cruiser output Pages: 1 -->
<svg width="426pt" height="188pt"
 viewBox="0.00 0.00 425.75 188.00" xmlns="http://www.w3.org/2000/svg" xmlns:xlink="http://www.w3.org/1999/xlink">
<g id="graph0" class="graph" transform="scale(1 1) rotate(0) translate(4 184)">
<title>dependency&#45;cruiser output</title>
<polygon fill="white" stroke="none" points="-4,4 -4,-184 421.75,-184 421.75,4 -4,4"/>
<g id="clust1" class="cluster">
<title>cluster_context</title>
<path fill="#ffffff" stroke="black" stroke-width="2" d="M20,-8C20,-8 397.75,-8 397.75,-8 403.75,-8 409.75,-14 409.75,-20 409.75,-20 409.75,-160 409.75,-160 409.75,-166 403.75,-172 397.75,-172 397.75,-172 20,-172 20,-172 14,-172 8,-166 8,-160 8,-160 8,-20 8,-20 8,-14 14,-8 20,-8"/>
<text text-anchor="middle" x="208.88" y="-159.45" font-family="Helvetica,sans-Serif" font-weight="bold" font-size="9.00">context</text>
</g>
<g id="clust2" class="cluster">
<title>cluster_context/grocery&#45;list</title>
<path fill="#ffffff" stroke="black" stroke-width="2" d="M28,-16C28,-16 389.75,-16 389.75,-16 395.75,-16 401.75,-22 401.75,-28 401.75,-28 401.75,-134 401.75,-134 401.75,-140 395.75,-146 389.75,-146 389.75,-146 28,-146 28,-146 22,-146 16,-140 16,-134 16,-134 16,-28 16,-28 16,-22 22,-16 28,-16"/>
<text text-anchor="middle" x="208.88" y="-133.45" font-family="Helvetica,sans-Serif" font-weight="bold" font-size="9.00">grocery&#45;list</text>
</g>
<g id="clust3" class="cluster">
<title>cluster_context/grocery&#45;list/domain</title>
<path fill="#ffffff" stroke="black" stroke-width="2" d="M148,-24C148,-24 381.75,-24 381.75,-24 387.75,-24 393.75,-30 393.75,-36 393.75,-36 393.75,-108 393.75,-108 393.75,-114 387.75,-120 381.75,-120 381.75,-120 148,-120 148,-120 142,-120 136,-114 136,-108 136,-108 136,-36 136,-36 136,-30 142,-24 148,-24"/>
<text text-anchor="middle" x="264.88" y="-107.45" font-family="Helvetica,sans-Serif" font-weight="bold" font-size="9.00">domain</text>
</g>
<g id="clust4" class="cluster">
<title>cluster_context/grocery&#45;list/use&#45;case</title>
<path fill="#ffffff" stroke="black" stroke-width="2" d="M36,-46C36,-46 116,-46 116,-46 122,-46 128,-52 128,-58 128,-58 128,-86 128,-86 128,-92 122,-98 116,-98 116,-98 36,-98 36,-98 30,-98 24,-92 24,-86 24,-86 24,-58 24,-58 24,-52 30,-46 36,-46"/>
<text text-anchor="middle" x="76" y="-85.45" font-family="Helvetica,sans-Serif" font-weight="bold" font-size="9.00">use&#45;case</text>
</g>
<!-- context/grocery&#45;list/domain/behavior.ts -->
<g id="node1" class="node">
<title>context/grocery&#45;list/domain/behavior.ts</title>
<g id="a_node1"><a xlink:href="context/grocery-list/domain/behavior.ts" xlink:title="behavior.ts">
<path fill="#ddfeff" stroke="black" d="M281.46,-49.88C281.46,-49.88 232.29,-49.88 232.29,-49.88 229.33,-49.88 226.38,-46.92 226.38,-43.96 226.38,-43.96 226.38,-38.04 226.38,-38.04 226.38,-35.08 229.33,-32.12 232.29,-32.12 232.29,-32.12 281.46,-32.12 281.46,-32.12 284.42,-32.12 287.38,-35.08 287.38,-38.04 287.38,-38.04 287.38,-43.96 287.38,-43.96 287.38,-46.92 284.42,-49.88 281.46,-49.88"/>
<text text-anchor="start" x="234.38" y="-37.33" font-family="Helvetica,sans-Serif" font-size="9.00">behavior.ts</text>
</a>
</g>
</g>
<!-- context/grocery&#45;list/domain/grocery&#45;list.ts -->
<g id="node2" class="node">
<title>context/grocery&#45;list/domain/grocery&#45;list.ts</title>
<g id="a_node2"><a xlink:href="context/grocery-list/domain/grocery-list.ts" xlink:title="grocery&#45;list.ts">
<path fill="#ddfeff" stroke="black" d="M379.83,-71.88C379.83,-71.88 321.67,-71.88 321.67,-71.88 318.71,-71.88 315.75,-68.92 315.75,-65.96 315.75,-65.96 315.75,-60.04 315.75,-60.04 315.75,-57.08 318.71,-54.12 321.67,-54.12 321.67,-54.12 379.83,-54.12 379.83,-54.12 382.79,-54.12 385.75,-57.08 385.75,-60.04 385.75,-60.04 385.75,-65.96 385.75,-65.96 385.75,-68.92 382.79,-71.88 379.83,-71.88"/>
<text text-anchor="start" x="323.75" y="-59.33" font-family="Helvetica,sans-Serif" font-size="9.00">grocery&#45;list.ts</text>
</a>
</g>
</g>
<!-- context/grocery&#45;list/domain/behavior.ts&#45;&gt;context/grocery&#45;list/domain/grocery&#45;list.ts -->
<g id="edge1" class="edge">
<title>context/grocery&#45;list/domain/behavior.ts&#45;&gt;context/grocery&#45;list/domain/grocery&#45;list.ts</title>
<path fill="none" stroke="#000000" stroke-width="2" stroke-opacity="0.200000" d="M287.7,-48.14C293.76,-49.59 300.23,-51.14 306.64,-52.68"/>
<polygon fill="#000000" fill-opacity="0.200000" stroke="#000000" stroke-width="2" stroke-opacity="0.200000" points="306.01,-54.69 312.34,-54.04 306.99,-50.6 306.01,-54.69"/>
</g>
<!-- context/grocery&#45;list/domain/grocery&#45;list&#45;repo.ts -->
<g id="node3" class="node">
<title>context/grocery&#45;list/domain/grocery&#45;list&#45;repo.ts</title>
<g id="a_node3"><a xlink:href="context/grocery-list/domain/grocery-list-repo.ts" xlink:title="grocery&#45;list&#45;repo.ts">
<path fill="#ddfeff" stroke="black" d="M296.83,-93.88C296.83,-93.88 216.92,-93.88 216.92,-93.88 213.96,-93.88 211,-90.92 211,-87.96 211,-87.96 211,-82.04 211,-82.04 211,-79.08 213.96,-76.12 216.92,-76.12 216.92,-76.12 296.83,-76.12 296.83,-76.12 299.79,-76.12 302.75,-79.08 302.75,-82.04 302.75,-82.04 302.75,-87.96 302.75,-87.96 302.75,-90.92 299.79,-93.88 296.83,-93.88"/>
<text text-anchor="start" x="219" y="-81.33" font-family="Helvetica,sans-Serif" font-size="9.00">grocery&#45;list&#45;repo.ts</text>
</a>
</g>
</g>
<!-- context/grocery&#45;list/domain/grocery&#45;list&#45;repo.ts&#45;&gt;context/grocery&#45;list/domain/grocery&#45;list.ts -->
<g id="edge2" class="edge">
<title>context/grocery&#45;list/domain/grocery&#45;list&#45;repo.ts&#45;&gt;context/grocery&#45;list/domain/grocery&#45;list.ts</title>
<path fill="none" stroke="#000000" stroke-opacity="0.200000" d="M296.84,-75.67C300.59,-74.77 304.41,-73.86 308.19,-72.95"/>
<polygon fill="none" stroke="#000000" stroke-opacity="0.200000" points="308.56,-75.02 313.91,-71.58 307.59,-70.94 308.56,-75.02"/>
</g>
<!-- context/grocery&#45;list/domain/index.ts -->
<g id="node4" class="node">
<title>context/grocery&#45;list/domain/index.ts</title>
<g id="a_node4"><a xlink:href="context/grocery-list/domain/index.ts" xlink:title="index.ts">
<path fill="#ddfeff" stroke="black" d="M192.08,-71.88C192.08,-71.88 149.92,-71.88 149.92,-71.88 146.96,-71.88 144,-68.92 144,-65.96 144,-65.96 144,-60.04 144,-60.04 144,-57.08 146.96,-54.12 149.92,-54.12 149.92,-54.12 192.08,-54.12 192.08,-54.12 195.04,-54.12 198,-57.08 198,-60.04 198,-60.04 198,-65.96 198,-65.96 198,-68.92 195.04,-71.88 192.08,-71.88"/>
<text text-anchor="start" x="155.25" y="-59.33" font-family="Helvetica,sans-Serif" font-size="9.00">index.ts</text>
</a>
</g>
</g>
<!-- context/grocery&#45;list/domain/index.ts&#45;&gt;context/grocery&#45;list/domain/behavior.ts -->
<g id="edge3" class="edge">
<title>context/grocery&#45;list/domain/index.ts&#45;&gt;context/grocery&#45;list/domain/behavior.ts</title>
<path fill="none" stroke="#000000" stroke-width="2" stroke-opacity="0.200000" d="M198.08,-56.16C204.85,-54.38 212.28,-52.44 219.48,-50.55"/>
<polygon fill="#000000" fill-opacity="0.200000" stroke="#000000" stroke-width="2" stroke-opacity="0.200000" points="225.57,-51.12 219.23,-50.61 224.5,-47.06 225.57,-51.12"/>
</g>
<!-- context/grocery&#45;list/domain/index.ts&#45;&gt;context/grocery&#45;list/domain/grocery&#45;list.ts -->
<g id="edge4" class="edge">
<title>context/grocery&#45;list/domain/index.ts&#45;&gt;context/grocery&#45;list/domain/grocery&#45;list.ts</title>
<path fill="none" stroke="#000000" stroke-width="2" stroke-opacity="0.200000" d="M198.23,-63C227.26,-63 274.43,-63 308.44,-63"/>
<polygon fill="#000000" fill-opacity="0.200000" stroke="#000000" stroke-width="2" stroke-opacity="0.200000" points="314.48,-65.1 308.48,-63 314.48,-60.9 314.48,-65.1"/>
</g>
<!-- context/grocery&#45;list/domain/index.ts&#45;&gt;context/grocery&#45;list/domain/grocery&#45;list&#45;repo.ts -->
<g id="edge5" class="edge">
<title>context/grocery&#45;list/domain/index.ts&#45;&gt;context/grocery&#45;list/domain/grocery&#45;list&#45;repo.ts</title>
<path fill="none" stroke="#000000" stroke-width="2" stroke-opacity="0.200000" d="M198.08,-69.84C203.02,-71.14 208.3,-72.52 213.58,-73.91"/>
<polygon fill="#000000" fill-opacity="0.200000" stroke="#000000" stroke-width="2" stroke-opacity="0.200000" points="218.76,-77.44 213.49,-73.88 219.83,-73.37 218.76,-77.44"/>
</g>
<!-- context/grocery&#45;list/use&#45;case/join&#45;grocery&#45;list.ts -->
<g id="node5" class="node">
<title>context/grocery&#45;list/use&#45;case/join&#45;grocery&#45;list.ts</title>
<g id="a_node5"><a xlink:href="context/grocery-list/use-case/join-grocery-list.ts" xlink:title="join&#45;grocery&#45;list.ts">
<path fill="#ddfeff" stroke="black" d="M114.08,-71.88C114.08,-71.88 37.92,-71.88 37.92,-71.88 34.96,-71.88 32,-68.92 32,-65.96 32,-65.96 32,-60.04 32,-60.04 32,-57.08 34.96,-54.12 37.92,-54.12 37.92,-54.12 114.08,-54.12 114.08,-54.12 117.04,-54.12 120,-57.08 120,-60.04 120,-60.04 120,-65.96 120,-65.96 120,-68.92 117.04,-71.88 114.08,-71.88"/>
<text text-anchor="start" x="40" y="-59.33" font-family="Helvetica,sans-Serif" font-size="9.00">join&#45;grocery&#45;list.ts</text>
</a>
</g>
</g>
<!-- context/grocery&#45;list/use&#45;case/join&#45;grocery&#45;list.ts&#45;&gt;context/grocery&#45;list/domain/index.ts -->
<g id="edge6" class="edge">
<title>context/grocery&#45;list/use&#45;case/join&#45;grocery&#45;list.ts&#45;&gt;context/grocery&#45;list/domain/index.ts</title>
<path fill="none" stroke="#000000" stroke-width="2" stroke-opacity="0.200000" d="M120.23,-63C125.09,-63 129.99,-63 134.73,-63"/>
<polygon fill="#000000" fill-opacity="0.200000" stroke="#000000" stroke-width="2" stroke-opacity="0.200000" points="134.56,-65.1 140.56,-63 134.56,-60.9 134.56,-65.1"/>
</g>
</g>
</svg>
